<?xml version="1.0" encoding="UTF-8" standalone="no"?>
<!-- Created with Inkscape (http://www.inkscape.org/) -->

<svg
   width="254.51888mm"
   height="140.38173mm"
   viewBox="0 0 254.51888 140.38173"
   version="1.1"
   id="svg1"
   inkscape:version="1.4 (e7c3feb100, 2024-10-09)"
   sodipodi:docname="container-snap.svg"
   xmlns:inkscape="http://www.inkscape.org/namespaces/inkscape"
   xmlns:sodipodi="http://sodipodi.sourceforge.net/DTD/sodipodi-0.dtd"
   xmlns="http://www.w3.org/2000/svg"
   xmlns:svg="http://www.w3.org/2000/svg">
  <sodipodi:namedview
     id="namedview1"
     pagecolor="#ffffff"
     bordercolor="#000000"
     borderopacity="0.25"
     inkscape:showpageshadow="2"
     inkscape:pageopacity="0.0"
     inkscape:pagecheckerboard="0"
     inkscape:deskcolor="#d1d1d1"
     inkscape:document-units="mm"
     inkscape:zoom="1.0574425"
     inkscape:cx="524.85123"
     inkscape:cy="346.59095"
     inkscape:window-width="2556"
     inkscape:window-height="1396"
     inkscape:window-x="1920"
     inkscape:window-y="20"
     inkscape:window-maximized="1"
     inkscape:current-layer="layer1" />
  <defs
     id="defs1">
    <marker
       style="overflow:visible"
       id="DartArrow"
       refX="0"
       refY="0"
       orient="auto-start-reverse"
       inkscape:stockid="Dart arrow"
       markerWidth="1"
       markerHeight="1"
       viewBox="0 0 1 1"
       inkscape:isstock="true"
       inkscape:collect="always"
       preserveAspectRatio="xMidYMid">
      <path
         style="fill:context-stroke;fill-rule:evenodd;stroke:none"
         d="M 0,0 5,-5 -12.5,0 5,5 Z"
         transform="scale(-0.5)"
         id="path6" />
    </marker>
    <marker
       style="overflow:visible"
       id="DartArrow-7"
       refX="0"
       refY="0"
       orient="auto-start-reverse"
       inkscape:stockid="Dart arrow"
       markerWidth="1"
       markerHeight="1"
       viewBox="0 0 1 1"
       inkscape:isstock="true"
       inkscape:collect="always"
       preserveAspectRatio="xMidYMid">
      <path
         style="fill:context-stroke;fill-rule:evenodd;stroke:none"
         d="M 0,0 5,-5 -12.5,0 5,5 Z"
         transform="scale(-0.5)"
         id="path6-53" />
    </marker>
    <marker
       style="overflow:visible"
       id="DartArrow-4"
       refX="0"
       refY="0"
       orient="auto-start-reverse"
       inkscape:stockid="Dart arrow"
       markerWidth="1"
       markerHeight="1"
       viewBox="0 0 1 1"
       inkscape:isstock="true"
       inkscape:collect="always"
       preserveAspectRatio="xMidYMid">
      <path
         style="fill:context-stroke;fill-rule:evenodd;stroke:none"
         d="M 0,0 5,-5 -12.5,0 5,5 Z"
         transform="scale(-0.5)"
         id="path6-5" />
    </marker>
  </defs>
  <g
     inkscape:label="Layer 1"
     inkscape:groupmode="layer"
     id="layer1"
     transform="translate(-105.60526,-212.46332)">
    <path
       d="m 209.1828,326.85192 c 0,-1.09882 0.89338,-1.99219 1.99219,-1.99219 h 11.95309 c 1.09882,0 1.99219,0.89337 1.99219,1.99219 v 5.73998 c -0.52917,-0.47315 -1.22644,-0.75953 -1.99219,-0.75953 h -11.95309 c -0.76575,0 -1.46301,0.28638 -1.99219,0.75953 z m 1.99219,5.97654 h 11.95309 c 1.09882,0 1.99219,0.89338 1.99219,1.99219 v 1.99218 c 0,1.09882 -0.89337,1.99219 -1.99219,1.99219 h -11.95309 c -1.09881,0 -1.99219,-0.89337 -1.99219,-1.99219 v -1.99218 c 0,-1.09881 0.89338,-1.99219 1.99219,-1.99219 z m 7.96873,3.98437 a 0.99609268,0.99609268 0 1 0 0,-1.99218 0.99609268,0.99609268 0 1 0 0,1.99218 z m 3.98436,-0.99609 a 0.99609242,0.99609242 0 1 0 -1.99217,0 0.99609242,0.99609242 0 1 0 1.99217,0 z"
       id="path1-6"
       style="stroke-width:0.0311279" />
    <rect
       style="opacity:0.98;fill:none;stroke:#000000;stroke-width:0.529167;stroke-dasharray:2.11667, 2.11667;stroke-dashoffset:0;stroke-opacity:1"
       id="rect1"
       width="54.2957"
       height="33.778423"
       x="201.16933"
       y="309.71176"
       ry="4.1104908" />
    <text
       xml:space="preserve"
       style="font-size:7.05556px;line-height:2;font-family:'Fira Code';-inkscape-font-specification:'Fira Code';text-align:start;writing-mode:lr-tb;direction:ltr;text-anchor:start;opacity:0.98;fill:#000000;fill-opacity:1;stroke:none;stroke-width:0.529167;stroke-dasharray:none;stroke-dashoffset:0;stroke-opacity:1"
       x="206.89542"
       y="319.32623"
       id="text1"><tspan
         sodipodi:role="line"
         id="tspan1"
         style="fill:#000000;fill-opacity:1;stroke:none;stroke-width:0.529167;stroke-dasharray:none"
         x="206.89542"
         y="319.32623">snapshot N</tspan></text>
    <text
       xml:space="preserve"
       style="font-size:7.05556px;line-height:2;font-family:'Fira Code';-inkscape-font-specification:'Fira Code';text-align:start;writing-mode:lr-tb;direction:ltr;text-anchor:start;opacity:0.98;fill:#000000;fill-opacity:1;stroke:none;stroke-width:0.529167;stroke-dasharray:none;stroke-dashoffset:0;stroke-opacity:1"
       x="230.17979"
       y="334.56277"
       id="text1-3"><tspan
         sodipodi:role="line"
         id="tspan1-6"
         style="fill:#000000;fill-opacity:1;stroke:none;stroke-width:0.529167;stroke-dasharray:none"
         x="230.17979"
         y="334.56277">/</tspan></text>
    <path
       style="opacity:0.98;fill:none;fill-opacity:1;stroke:#000000;stroke-width:0.529;stroke-dasharray:none;stroke-dashoffset:0;stroke-opacity:1;marker-end:url(#DartArrow)"
       d="m 243.72891,281.60552 c 41.07528,11.00609 39.40684,38.89837 -0.52917,49.59919"
       id="path2"
       sodipodi:nodetypes="cc" />
    <rect
       style="opacity:0.98;fill:none;stroke:#000000;stroke-width:0.529167;stroke-dasharray:2.11667, 2.11667;stroke-dashoffset:0;stroke-opacity:1"
       id="rect1-9"
       width="166.13986"
       height="75.313408"
       x="193.71744"
       y="215.21481"
       ry="4.1104908" />
    <rect
       style="opacity:0.98;fill:none;stroke:#000000;stroke-width:0.529167;stroke-dasharray:2.11667, 2.11667;stroke-dashoffset:0;stroke-opacity:1"
       id="rect1-9-6"
       width="166.13986"
       height="55.796989"
       x="193.71744"
       y="296.78348"
       ry="4.1104908" />
    <rect
       style="opacity:0.98;fill:#ffc02a;fill-opacity:1;stroke:#000000;stroke-width:0.529167;stroke-dasharray:2.11667, 2.11667;stroke-dashoffset:0;stroke-opacity:1"
       id="rect1-1"
       width="67.306648"
       height="13.261169"
       x="287.0481"
       y="220.98672"
       ry="4.1104908" />
    <rect
       style="opacity:0.98;fill:none;stroke:#000000;stroke-width:0.529167;stroke-dasharray:2.11667, 2.11667;stroke-dashoffset:0;stroke-opacity:1"
       id="rect1-2"
       width="47.289814"
       height="48.540848"
       x="105.87064"
       y="212.72791"
       ry="4.1104908" />
    <text
       xml:space="preserve"
       style="font-size:7.05556px;line-height:2;font-family:'Fira Code';-inkscape-font-specification:'Fira Code';text-align:start;writing-mode:lr-tb;direction:ltr;text-anchor:start;opacity:0.98;fill:#000000;fill-opacity:1;stroke:none;stroke-width:0.529167;stroke-dasharray:none;stroke-dashoffset:0;stroke-opacity:1"
       x="111.86982"
       y="221.51907"
       id="text1-1"><tspan
         sodipodi:role="line"
         id="tspan1-2"
         style="fill:#000000;fill-opacity:1;stroke:none;stroke-width:0.529167;stroke-dasharray:none"
         x="111.86982"
         y="221.51907">registry</tspan></text>
    <text
       xml:space="preserve"
       style="font-size:7.05556px;line-height:2;font-family:'Fira Code';-inkscape-font-specification:'Fira Code';text-align:start;writing-mode:lr-tb;direction:ltr;text-anchor:start;opacity:0.98;fill:#000000;fill-opacity:1;stroke:none;stroke-width:0.529167;stroke-dasharray:none;stroke-dashoffset:0;stroke-opacity:1"
       x="322.56784"
       y="285.78299"
       id="text1-7"><tspan
         sodipodi:role="line"
         id="tspan1-5"
         style="fill:#000000;fill-opacity:1;stroke:none;stroke-width:0.529167;stroke-dasharray:none"
         x="322.56784"
         y="285.78299">store</tspan></text>
    <text
       xml:space="preserve"
       style="font-size:7.05556px;line-height:1;font-family:'Fira Code';-inkscape-font-specification:'Fira Code';text-align:start;writing-mode:lr-tb;direction:ltr;text-anchor:start;opacity:0.98;fill:#000000;fill-opacity:1;stroke:none;stroke-width:0.529167;stroke-dasharray:none;stroke-dashoffset:0;stroke-opacity:1"
       x="293.31046"
       y="319.09201"
       id="text1-7-2"><tspan
         sodipodi:role="line"
         id="tspan1-5-8"
         style="line-height:1;text-align:center;text-anchor:middle;fill:#000000;fill-opacity:1;stroke:none;stroke-width:0.529167;stroke-dasharray:none"
         x="293.31046"
         y="319.09201">apply &amp;</tspan><tspan
         sodipodi:role="line"
         style="line-height:1;text-align:center;text-anchor:middle;fill:#000000;fill-opacity:1;stroke:none;stroke-width:0.529167;stroke-dasharray:none"
         x="293.31046"
         y="326.14758"
         id="tspan2">customize</tspan></text>
    <path
       d="m 200.69389,247.36669 c 0,-1.07782 0.87631,-1.95412 1.95413,-1.95412 h 4.03344 c 0.58318,0 1.14195,0.23205 1.55414,0.64425 l 1.30988,1.30987 h 4.82729 c 1.07783,0 1.95413,0.8763 1.95413,1.95412 v 7.81651 c 0,1.07782 -0.8763,1.95412 -1.95413,1.95412 h -11.72475 c -1.07782,0 -1.95413,-0.8763 -1.95413,-1.95412 z m 1.95413,-0.48853 c -0.26869,0 -0.48853,0.21984 -0.48853,0.48853 v 9.77063 c 0,0.26869 0.21984,0.48853 0.48853,0.48853 h 11.72475 c 0.2687,0 0.48853,-0.21984 0.48853,-0.48853 v -7.81651 c 0,-0.26868 -0.21983,-0.48853 -0.48853,-0.48853 h -4.92806 c -0.32365,0 -0.63508,-0.12824 -0.86409,-0.35723 l -1.38009,-1.38316 c -0.1374,-0.1374 -0.32366,-0.21373 -0.51907,-0.21373 z"
       id="path1-62"
       style="stroke-width:0.0305331" />
    <path
       d="m 222.48446,274.35962 c 0,-1.07782 0.87631,-1.95412 1.95413,-1.95412 h 4.03344 c 0.58318,0 1.14195,0.23205 1.55414,0.64425 l 1.30988,1.30987 h 4.82729 c 1.07783,0 1.95413,0.8763 1.95413,1.95412 v 7.81651 c 0,1.07782 -0.8763,1.95412 -1.95413,1.95412 h -11.72475 c -1.07782,0 -1.95413,-0.8763 -1.95413,-1.95412 z m 1.95413,-0.48853 c -0.26869,0 -0.48853,0.21984 -0.48853,0.48853 v 9.77063 c 0,0.26869 0.21984,0.48853 0.48853,0.48853 h 11.72475 c 0.2687,0 0.48853,-0.21984 0.48853,-0.48853 v -7.81651 c 0,-0.26868 -0.21983,-0.48853 -0.48853,-0.48853 h -4.92806 c -0.32365,0 -0.63508,-0.12824 -0.86409,-0.35723 l -1.38009,-1.38316 c -0.1374,-0.1374 -0.32366,-0.21373 -0.51907,-0.21373 z"
       id="path1-62-7"
       style="stroke-width:0.0305331" />
    <path
       id="path2-1"
       style="opacity:0.98;fill:none;stroke:#000000;stroke-width:0.79375;stroke-dasharray:none"
       d="m 209.25518,260.82833 v 18.58684 h 9.75822"
       sodipodi:nodetypes="ccc" />
    <text
       xml:space="preserve"
       style="font-size:7.05556px;line-height:2;font-family:'Fira Code';-inkscape-font-specification:'Fira Code';text-align:start;writing-mode:lr-tb;direction:ltr;text-anchor:start;opacity:0.98;fill:#000000;fill-opacity:1;stroke:none;stroke-width:0.529167;stroke-dasharray:none;stroke-dashoffset:0;stroke-opacity:1"
       x="290.72244"
       y="229.741"
       id="text1-7-1"><tspan
         sodipodi:role="line"
         id="tspan1-5-94"
         style="fill:#000000;fill-opacity:1;stroke:none;stroke-width:0.529167;stroke-dasharray:none"
         x="290.72244"
         y="229.741">container-snap</tspan></text>
    <rect
       style="opacity:0.98;fill:#0c7bdc;fill-opacity:1;stroke:#000000;stroke-width:0.529167;stroke-dasharray:2.11667, 2.11667;stroke-dashoffset:0;stroke-opacity:1"
       id="rect1-1-2"
       width="29.274628"
       height="13.261169"
       x="321.0806"
       y="313.74387"
       ry="4.1104908" />
    <text
       xml:space="preserve"
       style="font-size:7.05556px;line-height:2;font-family:'Fira Code';-inkscape-font-specification:'Fira Code';text-align:start;writing-mode:lr-tb;direction:ltr;text-anchor:start;opacity:0.98;fill:#000000;fill-opacity:1;stroke:none;stroke-width:0.529167;stroke-dasharray:none;stroke-dashoffset:0;stroke-opacity:1"
       x="324.75494"
       y="322.49814"
       id="text1-7-1-3"><tspan
         sodipodi:role="line"
         id="tspan1-5-94-7"
         style="fill:#000000;fill-opacity:1;stroke:none;stroke-width:0.529167;stroke-dasharray:none"
         x="324.75494"
         y="322.49814">tukit</tspan></text>
    <text
       xml:space="preserve"
       style="font-size:7.05556px;line-height:2;font-family:'Fira Code';-inkscape-font-specification:'Fira Code';text-align:start;writing-mode:lr-tb;direction:ltr;text-anchor:start;opacity:0.98;fill:#000000;fill-opacity:1;stroke:none;stroke-width:0.529167;stroke-dasharray:none;stroke-dashoffset:0;stroke-opacity:1"
       x="169.45509"
       y="226.06369"
       id="text1-7-8"><tspan
         sodipodi:role="line"
         id="tspan1-5-9"
         style="fill:#000000;fill-opacity:1;stroke:none;stroke-width:0.529167;stroke-dasharray:none"
         x="169.45509"
         y="226.06369">pull</tspan></text>
    <text
       xml:space="preserve"
       style="font-size:7.05556px;line-height:2;font-family:'Fira Code';-inkscape-font-specification:'Fira Code';text-align:start;writing-mode:lr-tb;direction:ltr;text-anchor:start;opacity:0.98;fill:#000000;fill-opacity:1;stroke:none;stroke-width:0.529167;stroke-dasharray:none;stroke-dashoffset:0;stroke-opacity:1"
       x="221.22665"
       y="255.32867"
       id="text1-3-7"><tspan
         sodipodi:role="line"
         id="tspan1-6-0"
         style="fill:#000000;fill-opacity:1;stroke:none;stroke-width:0.529167;stroke-dasharray:none"
         x="221.22665"
         y="255.32867">/var/lib/container-snap/</tspan></text>
    <path
       d="m 128.74664,233.91275 2.83276,1.07313 -2.93393,1.12732 -2.93392,-1.12732 2.83275,-1.07313 c 0.065,-0.0253 0.1373,-0.0253 0.20596,0 z m -5.59324,1.5862 v 4.05402 c -0.047,0.0144 -0.0939,0.0289 -0.14091,0.047 l -3.46868,1.31521 c -0.78407,0.29628 -1.30437,1.05144 -1.30437,1.8897 v 4.30694 c 0,0.80214 0.47333,1.52839 1.21043,1.85358 l 3.46867,1.52477 c 0.5203,0.22763 1.10926,0.22763 1.62956,0 l 4.09737,-1.80299 4.10099,1.80299 c 0.5203,0.22763 1.10926,0.22763 1.62956,0 l 3.46867,-1.52477 c 0.73349,-0.32158 1.21043,-1.05144 1.21043,-1.85358 v -4.30332 c 0,-0.84188 -0.5203,-1.59343 -1.30437,-1.89332 l -3.46868,-1.31521 c -0.047,-0.0181 -0.0939,-0.0325 -0.14091,-0.047 v -4.05402 c 0,-0.84188 -0.5203,-1.59342 -1.30437,-1.89332 l -3.46868,-1.3152 c -0.46249,-0.17344 -0.97195,-0.17344 -1.43444,0 l -3.46867,1.3152 c -0.7913,0.2999 -1.3116,1.05506 -1.3116,1.89332 z m 9.24981,4.2672 -2.97728,1.12732 v -3.22298 l 2.97728,-1.14177 z m -8.57053,1.45612 2.83276,1.07312 -2.93393,1.12371 -2.93392,-1.12371 2.83275,-1.07312 c 0.065,-0.0253 0.13731,-0.0253 0.20596,0 z m 0.67929,7.38539 v -3.63127 l 2.97728,-1.14177 v 3.46506 z m 8.94629,-7.38539 c 0.065,-0.0253 0.13731,-0.0253 0.20595,0 l 2.83276,1.07312 -2.93754,1.12371 -2.93392,-1.12371 z m 3.68547,6.15329 -2.80385,1.2321 v -3.63127 l 2.97729,-1.14177 v 3.27717 c 0,0.11563 -0.0686,0.2168 -0.17344,0.26377 z"
       id="path1-61"
       style="stroke-width:0.036132" />
    <path
       d="m 174.38735,233.39093 -0.95522,1.91233 h 3.91888 v -2.41161 h -2.1535 c -0.34291,0 -0.65566,0.19406 -0.81016,0.49928 z m 3.56656,1.91233 h 3.91888 l -0.95523,-1.91233 c -0.15449,-0.30522 -0.46725,-0.49928 -0.81015,-0.49928 h -2.1535 z m 3.91888,0.60291 h -8.44066 v 4.22033 c 0,0.66508 0.54073,1.2058 1.20581,1.2058 h 6.02904 c 0.66508,0 1.20581,-0.54072 1.20581,-1.2058 z"
       id="path1-2"
       style="stroke-width:0.0188407" />
    <path
       style="opacity:0.98;fill:none;fill-opacity:1;stroke:#000000;stroke-width:0.529;stroke-dasharray:none;stroke-dashoffset:0;stroke-opacity:1;marker-end:url(#DartArrow-7)"
       d="m 155.43521,235.71367 c 9.65461,-9.65461 126.35635,-8.00674 126.35635,-8.00674"
       id="path2-9"
       sodipodi:nodetypes="cc" />
    <path
       style="opacity:0.98;fill:none;fill-opacity:1;stroke:#000000;stroke-width:0.529;stroke-dasharray:none;stroke-dashoffset:0;stroke-opacity:1;marker-end:url(#DartArrow-4)"
       d="m 348.04378,238.55934 c 0,47.40589 -27.45062,39.59532 -102.53308,39.59532"
       id="path2-3"
       sodipodi:nodetypes="cc" />
  </g>
</svg>
