<?xml version="1.0" encoding="UTF-8" standalone="no"?>
<!-- Created with Inkscape (http://www.inkscape.org/) -->

<svg
   width="211.45671mm"
   height="72.216812mm"
   viewBox="0 0 211.45671 72.216812"
   version="1.1"
   id="svg1"
   inkscape:version="1.4 (e7c3feb100, 2024-10-09)"
   sodipodi:docname="tukit.svg"
   xmlns:inkscape="http://www.inkscape.org/namespaces/inkscape"
   xmlns:sodipodi="http://sodipodi.sourceforge.net/DTD/sodipodi-0.dtd"
   xmlns="http://www.w3.org/2000/svg"
   xmlns:svg="http://www.w3.org/2000/svg">
  <sodipodi:namedview
     id="namedview1"
     pagecolor="#ffffff"
     bordercolor="#000000"
     borderopacity="0.25"
     inkscape:showpageshadow="2"
     inkscape:pageopacity="0.0"
     inkscape:pagecheckerboard="0"
     inkscape:deskcolor="#d1d1d1"
     inkscape:document-units="mm"
     inkscape:zoom="1.0574425"
     inkscape:cx="285.59473"
     inkscape:cy="73.290038"
     inkscape:window-width="2556"
     inkscape:window-height="1396"
     inkscape:window-x="1920"
     inkscape:window-y="20"
     inkscape:window-maximized="1"
     inkscape:current-layer="layer1" />
  <defs
     id="defs1">
    <marker
       style="overflow:visible"
       id="DartArrow"
       refX="0"
       refY="0"
       orient="auto-start-reverse"
       inkscape:stockid="Dart arrow"
       markerWidth="1"
       markerHeight="1"
       viewBox="0 0 1 1"
       inkscape:isstock="true"
       inkscape:collect="always"
       preserveAspectRatio="xMidYMid">
      <path
         style="fill:context-stroke;fill-rule:evenodd;stroke:none"
         d="M 0,0 5,-5 -12.5,0 5,5 Z"
         transform="scale(-0.5)"
         id="path6" />
    </marker>
    <marker
       style="overflow:visible"
       id="DartArrow-5"
       refX="0"
       refY="0"
       orient="auto-start-reverse"
       inkscape:stockid="Dart arrow"
       markerWidth="1"
       markerHeight="1"
       viewBox="0 0 1 1"
       inkscape:isstock="true"
       inkscape:collect="always"
       preserveAspectRatio="xMidYMid">
      <path
         style="fill:context-stroke;fill-rule:evenodd;stroke:none"
         d="M 0,0 5,-5 -12.5,0 5,5 Z"
         transform="scale(-0.5)"
         id="path6-2" />
    </marker>
  </defs>
  <g
     inkscape:label="Layer 1"
     inkscape:groupmode="layer"
     id="layer1"
     transform="translate(-72.796917,-186.00498)">
    <path
       d="m 87.830665,223.26472 c 0,-1.09882 0.89338,-1.99219 1.99219,-1.99219 h 11.953095 c 1.09882,0 1.99219,0.89337 1.99219,1.99219 v 5.73998 c -0.52917,-0.47315 -1.22644,-0.75953 -1.99219,-0.75953 H 89.822855 c -0.76575,0 -1.46301,0.28638 -1.99219,0.75953 z m 1.99219,5.97654 h 11.953095 c 1.09882,0 1.99219,0.89338 1.99219,1.99219 v 1.99218 c 0,1.09882 -0.89337,1.99219 -1.99219,1.99219 H 89.822855 c -1.09881,0 -1.99219,-0.89337 -1.99219,-1.99219 v -1.99218 c 0,-1.09881 0.89338,-1.99219 1.99219,-1.99219 z m 7.96873,3.98437 a 0.99609268,0.99609268 0 1 0 0,-1.99218 0.99609268,0.99609268 0 1 0 0,1.99218 z m 3.984365,-0.99609 a 0.99609242,0.99609242 0 1 0 -1.992175,0 0.99609242,0.99609242 0 1 0 1.992175,0 z"
       id="path1-6"
       style="stroke-width:0.0311279" />
    <rect
       style="opacity:0.98;fill:none;stroke:#000000;stroke-width:0.529167;stroke-dasharray:2.11667, 2.11667;stroke-dashoffset:0;stroke-opacity:1"
       id="rect1"
       width="54.295704"
       height="47.540009"
       x="73.061501"
       y="198.11783"
       ry="4.1104908" />
    <text
       xml:space="preserve"
       style="font-size:7.05556px;line-height:2;font-family:'Fira Code';-inkscape-font-specification:'Fira Code';text-align:start;writing-mode:lr-tb;direction:ltr;text-anchor:start;opacity:0.98;fill:#000000;fill-opacity:1;stroke:none;stroke-width:0.529167;stroke-dasharray:none;stroke-dashoffset:0;stroke-opacity:1"
       x="78.787598"
       y="207.7323"
       id="text1"><tspan
         sodipodi:role="line"
         id="tspan1"
         style="fill:#000000;fill-opacity:1;stroke:none;stroke-width:0.529167;stroke-dasharray:none"
         x="78.787598"
         y="207.7323">snapshot 1</tspan></text>
    <text
       xml:space="preserve"
       style="font-size:7.05556px;line-height:2;font-family:'Fira Code';-inkscape-font-specification:'Fira Code';text-align:start;writing-mode:lr-tb;direction:ltr;text-anchor:start;opacity:0.98;fill:#000000;fill-opacity:1;stroke:none;stroke-width:0.529167;stroke-dasharray:none;stroke-dashoffset:0;stroke-opacity:1"
       x="108.82766"
       y="230.97557"
       id="text1-3"><tspan
         sodipodi:role="line"
         id="tspan1-6"
         style="fill:#000000;fill-opacity:1;stroke:none;stroke-width:0.529167;stroke-dasharray:none"
         x="108.82766"
         y="230.97557">/</tspan></text>
    <path
       d="m 167.64785,223.26472 c 0,-1.09882 0.89338,-1.99219 1.99219,-1.99219 h 11.9531 c 1.09882,0 1.99219,0.89337 1.99219,1.99219 v 5.73998 c -0.52917,-0.47315 -1.22644,-0.75953 -1.99219,-0.75953 h -11.9531 c -0.76575,0 -1.46301,0.28638 -1.99219,0.75953 z m 1.99219,5.97654 h 11.9531 c 1.09882,0 1.99219,0.89338 1.99219,1.99219 v 1.99218 c 0,1.09882 -0.89337,1.99219 -1.99219,1.99219 h -11.9531 c -1.09881,0 -1.99219,-0.89337 -1.99219,-1.99219 v -1.99218 c 0,-1.09881 0.89338,-1.99219 1.99219,-1.99219 z m 7.96873,3.98437 a 0.99609268,0.99609268 0 1 0 0,-1.99218 0.99609268,0.99609268 0 1 0 0,1.99218 z m 3.98437,-0.99609 a 0.99609242,0.99609242 0 1 0 -1.99218,0 0.99609242,0.99609242 0 1 0 1.99218,0 z"
       id="path1-6-6"
       style="stroke-width:0.0311279" />
    <rect
       style="opacity:0.98;fill:none;stroke:#000000;stroke-width:0.529167;stroke-dasharray:2.11667, 2.11667;stroke-dashoffset:0;stroke-opacity:1"
       id="rect1-3"
       width="54.295704"
       height="47.540009"
       x="152.87869"
       y="198.11783"
       ry="4.1104908" />
    <text
       xml:space="preserve"
       style="font-size:7.05556px;line-height:2;font-family:'Fira Code';-inkscape-font-specification:'Fira Code';text-align:start;writing-mode:lr-tb;direction:ltr;text-anchor:start;opacity:0.98;fill:#000000;fill-opacity:1;stroke:none;stroke-width:0.529167;stroke-dasharray:none;stroke-dashoffset:0;stroke-opacity:1"
       x="158.60478"
       y="207.7323"
       id="text1-2"><tspan
         sodipodi:role="line"
         id="tspan1-0"
         style="fill:#000000;fill-opacity:1;stroke:none;stroke-width:0.529167;stroke-dasharray:none"
         x="158.60478"
         y="207.7323">snapshot 2</tspan></text>
    <text
       xml:space="preserve"
       style="font-size:7.05556px;line-height:2;font-family:'Fira Code';-inkscape-font-specification:'Fira Code';text-align:start;writing-mode:lr-tb;direction:ltr;text-anchor:start;opacity:0.98;fill:#000000;fill-opacity:1;stroke:none;stroke-width:0.529167;stroke-dasharray:none;stroke-dashoffset:0;stroke-opacity:1"
       x="188.64485"
       y="230.97557"
       id="text1-3-6"><tspan
         sodipodi:role="line"
         id="tspan1-6-1"
         style="fill:#000000;fill-opacity:1;stroke:none;stroke-width:0.529167;stroke-dasharray:none"
         x="188.64485"
         y="230.97557">/</tspan></text>
    <rect
       style="opacity:0.98;fill:#ffc02a;fill-opacity:1;stroke:#000000;stroke-width:0.529167;stroke-dasharray:2.11667, 2.11667;stroke-dashoffset:0;stroke-opacity:1"
       id="rect1-3-6"
       width="54.295704"
       height="47.540009"
       x="229.69334"
       y="198.11783"
       ry="4.1104908" />
    <text
       xml:space="preserve"
       style="font-size:7.05556px;line-height:2;font-family:'Fira Code';-inkscape-font-specification:'Fira Code';text-align:start;writing-mode:lr-tb;direction:ltr;text-anchor:start;opacity:0.98;fill:#000000;fill-opacity:1;stroke:none;stroke-width:0.529167;stroke-dasharray:none;stroke-dashoffset:0;stroke-opacity:1"
       x="235.41943"
       y="207.7323"
       id="text1-2-5"><tspan
         sodipodi:role="line"
         id="tspan1-0-6"
         style="fill:#000000;fill-opacity:1;stroke:none;stroke-width:0.529167;stroke-dasharray:none"
         x="235.41943"
         y="207.7323">snapshot 3</tspan></text>
    <text
       xml:space="preserve"
       style="font-size:7.05556px;line-height:2;font-family:'Fira Code';-inkscape-font-specification:'Fira Code';text-align:start;writing-mode:lr-tb;direction:ltr;text-anchor:start;opacity:0.98;fill:#000000;fill-opacity:1;stroke:none;stroke-width:0.529167;stroke-dasharray:none;stroke-dashoffset:0;stroke-opacity:1"
       x="248.28854"
       y="256.68765"
       id="text1-2-5-4"><tspan
         sodipodi:role="line"
         id="tspan1-0-6-7"
         style="fill:#000000;fill-opacity:1;stroke:none;stroke-width:0.529167;stroke-dasharray:none"
         x="248.28854"
         y="256.68765">update</tspan></text>
    <path
       d="m 244.46251,223.26472 c 0,-1.09882 0.89338,-1.99219 1.99219,-1.99219 h 11.9531 c 1.09882,0 1.99219,0.89337 1.99219,1.99219 v 5.73998 c -0.52917,-0.47315 -1.22644,-0.75953 -1.99219,-0.75953 h -11.9531 c -0.76575,0 -1.46301,0.28638 -1.99219,0.75953 z m 1.99219,5.97654 h 11.9531 c 1.09882,0 1.99219,0.89338 1.99219,1.99219 v 1.99218 c 0,1.09882 -0.89337,1.99219 -1.99219,1.99219 h -11.9531 c -1.09881,0 -1.99219,-0.89337 -1.99219,-1.99219 v -1.99218 c 0,-1.09881 0.89338,-1.99219 1.99219,-1.99219 z m 7.96873,3.98437 a 0.99609268,0.99609268 0 1 0 0,-1.99218 0.99609268,0.99609268 0 1 0 0,1.99218 z m 3.98437,-0.99609 a 0.99609242,0.99609242 0 1 0 -1.99218,0 0.99609242,0.99609242 0 1 0 1.99218,0 z"
       id="path1-6-6-7"
       style="stroke-width:0.0311279" />
    <text
       xml:space="preserve"
       style="font-size:7.05556px;line-height:2;font-family:'Fira Code';-inkscape-font-specification:'Fira Code';text-align:start;writing-mode:lr-tb;direction:ltr;text-anchor:start;opacity:0.98;fill:#000000;fill-opacity:1;stroke:none;stroke-width:0.529167;stroke-dasharray:none;stroke-dashoffset:0;stroke-opacity:1"
       x="265.4595"
       y="230.97557"
       id="text1-3-6-9"><tspan
         sodipodi:role="line"
         id="tspan1-6-1-3"
         style="fill:#000000;fill-opacity:1;stroke:none;stroke-width:0.529167;stroke-dasharray:none"
         x="265.4595"
         y="230.97557">/</tspan></text>
    <path
       style="opacity:0.98;fill:none;fill-opacity:1;stroke:#000000;stroke-width:0.529;stroke-dasharray:none;stroke-dashoffset:0;stroke-opacity:1;marker-end:url(#DartArrow)"
       d="m 99.083398,195.50106 c 22.674472,-11.74392 44.834962,-12.87852 74.312552,0"
       id="path2"
       sodipodi:nodetypes="cc" />
    <path
       style="opacity:0.98;fill:none;fill-opacity:1;stroke:#000000;stroke-width:0.529;stroke-dasharray:none;stroke-dashoffset:0;stroke-opacity:1;marker-end:url(#DartArrow-5)"
       d="m 177.89974,195.50106 c 22.67447,-11.74392 44.83496,-12.87852 74.31255,0"
       id="path2-4"
       sodipodi:nodetypes="cc" />
    <path
       d="m 244.51004,253.28574 h -0.75461 c -0.26555,0 -0.48008,0.21453 -0.48008,0.48007 0,0.26554 0.21453,0.48008 0.48008,0.48008 h 1.92029 c 0.26554,0 0.48007,-0.21454 0.48007,-0.48008 v -1.92029 c 0,-0.26555 -0.21453,-0.48009 -0.48007,-0.48009 -0.26555,0 -0.48008,0.21454 -0.48008,0.48009 v 0.76812 l -0.26403,-0.26405 c -1.31271,-1.31271 -3.44004,-1.31271 -4.75274,0 -1.3127,1.31271 -1.3127,3.44003 0,4.75274 1.3127,1.31271 3.44003,1.31271 4.75274,0 0.18752,-0.18753 0.18752,-0.49208 0,-0.67961 -0.18754,-0.18753 -0.49208,-0.18753 -0.6796,0 -0.93765,0.93765 -2.45738,0.93765 -3.39504,0 -0.93764,-0.93764 -0.93764,-2.45738 0,-3.39502 0.93766,-0.93764 2.45739,-0.93764 3.39504,0 z"
       id="path1"
       style="stroke-width:0.0150023" />
  </g>
</svg>
